<svg xmlns="http://www.w3.org/2000/svg" viewBox="0 0 64 64" fill="none" aria-label="CE-EMC certification">
  <circle cx="32" cy="32" r="30" fill="#f8fafc" stroke="#e2e8f0" stroke-width="1.5"/>
  <path d="M18 20 Q12 20 12 32 Q12 44 18 44 L18 40 Q15 40 15 32 Q15 24 18 24 Z" fill="#ef4444"/>
  <path d="M34 20 Q28 20 28 32 Q28 44 34 44 L34 40 Q31 40 31 32 Q31 24 34 24 Z" fill="#ef4444"/>
  <path d="M42 28 L52 28 L52 32 L46 32 L46 36 L52 36 L52 40 L42 40" fill="#f59e0b"/>
  <text x="32" y="56" text-anchor="middle" font-family="Arial, sans-serif" font-size="8" font-weight="bold" fill="#334155">CE-EMC</text>
</svg>
