<svg xmlns="http://www.w3.org/2000/svg" viewBox="0 0 200 200" width="200" height="200" role="img" aria-label="WeChat QR code placeholder">
  <!-- Background -->
  <rect width="200" height="200" fill="#FFFFFF"/>

  <!-- Finder patterns (top-left, top-right, bottom-left) -->
  <g fill="#091E42">
    <!-- TL -->
    <rect x="10" y="10" width="50" height="50" rx="6"/>
    <rect x="18" y="18" width="34" height="34" rx="3" fill="#FFFFFF"/>
    <rect x="24" y="24" width="22" height="22" rx="2"/>
    <!-- TR -->
    <rect x="140" y="10" width="50" height="50" rx="6"/>
    <rect x="148" y="18" width="34" height="34" rx="3" fill="#FFFFFF"/>
    <rect x="154" y="24" width="22" height="22" rx="2"/>
    <!-- BL -->
    <rect x="10" y="140" width="50" height="50" rx="6"/>
    <rect x="18" y="148" width="34" height="34" rx="3" fill="#FFFFFF"/>
    <rect x="24" y="154" width="22" height="22" rx="2"/>
  </g>

  <!-- Pseudo-random data modules (placeholder pattern) -->
  <g fill="#091E42">
    <!-- Row 1-3 sparse -->
    <rect x="70" y="14" width="6" height="6"/>
    <rect x="84" y="14" width="6" height="6"/>
    <rect x="98" y="14" width="6" height="6"/>
    <rect x="112" y="14" width="6" height="6"/>
    <rect x="76" y="26" width="6" height="6"/>
    <rect x="104" y="26" width="6" height="6"/>
    <rect x="124" y="26" width="6" height="6"/>
    <rect x="70" y="38" width="6" height="6"/>
    <rect x="92" y="38" width="6" height="6"/>
    <rect x="118" y="38" width="6" height="6"/>
    <rect x="130" y="38" width="6" height="6"/>
    <rect x="84" y="50" width="6" height="6"/>
    <rect x="98" y="50" width="6" height="6"/>
    <rect x="116" y="50" width="6" height="6"/>
    <!-- Center area -->
    <rect x="70" y="70" width="6" height="6"/>
    <rect x="86" y="70" width="6" height="6"/>
    <rect x="100" y="70" width="6" height="6"/>
    <rect x="120" y="70" width="6" height="6"/>
    <rect x="76" y="82" width="6" height="6"/>
    <rect x="92" y="82" width="6" height="6"/>
    <rect x="110" y="82" width="6" height="6"/>
    <rect x="130" y="82" width="6" height="6"/>
    <rect x="70" y="94" width="6" height="6"/>
    <rect x="84" y="94" width="6" height="6"/>
    <rect x="100" y="94" width="6" height="6"/>
    <rect x="124" y="94" width="6" height="6"/>
    <rect x="78" y="106" width="6" height="6"/>
    <rect x="94" y="106" width="6" height="6"/>
    <rect x="116" y="106" width="6" height="6"/>
    <rect x="132" y="106" width="6" height="6"/>
    <rect x="72" y="118" width="6" height="6"/>
    <rect x="90" y="118" width="6" height="6"/>
    <rect x="108" y="118" width="6" height="6"/>
    <rect x="126" y="118" width="6" height="6"/>
    <!-- Right column between TR and data -->
    <rect x="150" y="70" width="6" height="6"/>
    <rect x="166" y="70" width="6" height="6"/>
    <rect x="182" y="70" width="6" height="6"/>
    <rect x="144" y="82" width="6" height="6"/>
    <rect x="160" y="82" width="6" height="6"/>
    <rect x="176" y="82" width="6" height="6"/>
    <rect x="148" y="94" width="6" height="6"/>
    <rect x="172" y="94" width="6" height="6"/>
    <rect x="184" y="94" width="6" height="6"/>
    <rect x="150" y="106" width="6" height="6"/>
    <rect x="166" y="106" width="6" height="6"/>
    <rect x="180" y="106" width="6" height="6"/>
    <rect x="144" y="118" width="6" height="6"/>
    <rect x="158" y="118" width="6" height="6"/>
    <rect x="174" y="118" width="6" height="6"/>
    <!-- Bottom area -->
    <rect x="70" y="140" width="6" height="6"/>
    <rect x="92" y="140" width="6" height="6"/>
    <rect x="118" y="140" width="6" height="6"/>
    <rect x="138" y="140" width="6" height="6"/>
    <rect x="76" y="152" width="6" height="6"/>
    <rect x="100" y="152" width="6" height="6"/>
    <rect x="124" y="152" width="6" height="6"/>
    <rect x="146" y="152" width="6" height="6"/>
    <rect x="84" y="164" width="6" height="6"/>
    <rect x="108" y="164" width="6" height="6"/>
    <rect x="132" y="164" width="6" height="6"/>
    <rect x="158" y="164" width="6" height="6"/>
    <rect x="70" y="176" width="6" height="6"/>
    <rect x="94" y="176" width="6" height="6"/>
    <rect x="120" y="176" width="6" height="6"/>
    <rect x="140" y="176" width="6" height="6"/>
    <rect x="164" y="176" width="6" height="6"/>
    <rect x="180" y="176" width="6" height="6"/>
  </g>

  <!-- Center logo badge -->
  <g transform="translate(100 100)">
    <circle r="22" fill="#FFFFFF"/>
    <circle r="20" fill="#07C160"/>
    <text x="0" y="6" text-anchor="middle" font-family="-apple-system,sans-serif" font-size="20" font-weight="700" fill="#FFFFFF">微</text>
  </g>

  <!-- Caption -->
  <text x="100" y="195" text-anchor="middle" font-family="-apple-system,sans-serif" font-size="9" fill="#7A869A">PLACEHOLDER · Replace before deploy</text>
</svg>
